<?xml version="1.0" encoding="UTF-8" standalone="no"?>
<!DOCTYPE svg PUBLIC "-//W3C//DTD SVG 1.1//EN" "http://www.w3.org/Graphics/SVG/1.1/DTD/svg11.dtd">
<svg width="100%" height="100%" viewBox="0 0 117 25" version="1.1" xmlns="http://www.w3.org/2000/svg" xmlns:xlink="http://www.w3.org/1999/xlink" xml:space="preserve" xmlns:serif="http://www.serif.com/" style="fill-rule:evenodd;clip-rule:evenodd;stroke-linejoin:round;stroke-miterlimit:2;">
    <g transform="matrix(1,0,0,1,-41.6421,-44.5151)">
        <g transform="matrix(1,0,0,1,82.1699,60.7266)">
            <path d="M0,-8.106L0,-16.211L-8.105,-16.211L-8.105,-8.106L-16.211,-8.106L-16.211,-0.001L-8.105,-0.001L-8.105,8.105L0,8.105L0,-0.001L8.105,-0.001L8.105,-8.106L0,-8.106Z" style="fill:rgb(65,98,173);fill-rule:nonzero;"/>
        </g>
        <g transform="matrix(1,0,0,1,0,-694.863)">
            <rect x="57.853" y="739.379" width="8.106" height="8.105" style="fill:rgb(65,98,173);"/>
        </g>
        <g transform="matrix(1,0,0,1,41.6421,68.8311)">
            <path d="M0,-24.316L0,0L8.105,0L8.105,-12.158L16.211,0L24.317,0L8.105,-24.316L0,-24.316Z" style="fill:rgb(65,98,173);fill-rule:nonzero;"/>
        </g>
        <g transform="matrix(1,0,0,1,105.234,46.8559)">
            <path d="M0,6.689L-3.057,6.689L-3.057,4.002L0.275,4.002L0.275,2.356L-3.057,2.356L-3.057,0.007L-0.027,0.007L0.061,1.184L1.695,1.184L1.695,-1.639L-6.203,-1.639L-6.203,-0.335L-5.155,-0.132L-5.155,6.828L-6.203,7.031L-6.203,8.328L1.708,8.328L1.708,5.513L0.087,5.513L0,6.689Z" style="fill:rgb(35,31,32);fill-rule:nonzero;"/>
        </g>
        <g transform="matrix(1,0,0,1,115.256,52.2412)">
            <path d="M0,-1.689C0,-2.692 -0.214,-3.441 -0.638,-3.914C-1.063,-4.39 -1.661,-4.631 -2.415,-4.631C-2.864,-4.631 -3.277,-4.524 -3.642,-4.312C-3.957,-4.128 -4.232,-3.877 -4.462,-3.564L-4.541,-4.496L-7.546,-4.496L-7.546,-3.192L-6.499,-2.99L-6.499,1.444L-7.445,1.647L-7.445,2.942L-3.603,2.942L-3.603,1.648L-4.4,1.446L-4.4,-2.405C-4.27,-2.582 -4.106,-2.722 -3.914,-2.82C-3.715,-2.921 -3.488,-2.972 -3.239,-2.972C-2.858,-2.972 -2.57,-2.875 -2.385,-2.683C-2.199,-2.49 -2.105,-2.154 -2.105,-1.682L-2.105,1.445L-2.95,1.648L-2.95,2.942L0.946,2.942L0.946,1.647L0,1.444L0,-1.689Z" style="fill:rgb(35,31,32);fill-rule:nonzero;"/>
        </g>
        <g transform="matrix(1,0,0,1,122.236,53.6125)">
            <path d="M0,-1.945C0,-1.32 -0.109,-0.819 -0.326,-0.456C-0.539,-0.099 -0.865,0.075 -1.323,0.075C-1.617,0.075 -1.868,0.022 -2.068,-0.081C-2.261,-0.18 -2.417,-0.326 -2.531,-0.515L-2.531,-3.686C-2.416,-3.894 -2.26,-4.056 -2.066,-4.169C-1.866,-4.284 -1.621,-4.343 -1.336,-4.343C-0.884,-4.343 -0.557,-4.144 -0.337,-3.735C-0.113,-3.317 0,-2.763 0,-2.087L0,-1.945ZM-0.823,-6.003C-1.233,-6.003 -1.599,-5.913 -1.908,-5.737C-2.173,-5.587 -2.409,-5.379 -2.61,-5.119L-2.693,-5.867L-5.678,-5.867L-5.678,-4.564L-4.623,-4.361L-4.623,2.552L-5.576,2.755L-5.576,4.058L-1.579,4.058L-1.579,2.755L-2.531,2.552L-2.531,0.986C-2.337,1.202 -2.111,1.373 -1.857,1.493C-1.553,1.639 -1.2,1.713 -0.81,1.713C0.104,1.713 0.825,1.373 1.335,0.702C1.842,0.036 2.099,-0.854 2.099,-1.945L2.099,-2.087C2.099,-3.248 1.842,-4.2 1.337,-4.914C0.827,-5.636 0.1,-6.003 -0.823,-6.003" style="fill:rgb(35,31,32);fill-rule:nonzero;"/>
        </g>
        <g transform="matrix(1,0,0,1,127.897,55.1831)">
            <path d="M0,-10.668L-3.153,-10.668L-3.153,-9.365L-2.099,-9.162L-2.099,-1.498L-3.052,-1.295L-3.052,0L0.953,0L0.953,-1.295L0,-1.498L0,-10.668Z" style="fill:rgb(35,31,32);fill-rule:nonzero;"/>
        </g>
        <g transform="matrix(1,0,0,1,136.467,55.3256)">
            <path d="M0,-7.58L-2.963,-7.58L-2.963,-6.279L-2.098,-6.077L-2.098,-2.206C-2.233,-2.034 -2.409,-1.9 -2.619,-1.806C-2.837,-1.708 -3.101,-1.659 -3.401,-1.659C-3.735,-1.659 -3.979,-1.765 -4.146,-1.982C-4.314,-2.203 -4.4,-2.576 -4.4,-3.09L-4.4,-7.58L-7.303,-7.58L-7.303,-6.28L-6.499,-6.077L-6.499,-3.104C-6.499,-2.052 -6.272,-1.264 -5.828,-0.761C-5.38,-0.256 -4.755,0 -3.969,0C-3.519,0 -3.112,-0.096 -2.76,-0.285C-2.452,-0.45 -2.184,-0.679 -1.961,-0.968L-1.847,-0.142L0.886,-0.142L0.886,-1.437L0,-1.64L0,-7.58Z" style="fill:rgb(35,31,32);fill-rule:nonzero;"/>
        </g>
        <g transform="matrix(1,0,0,1,143.689,51.4152)">
            <path d="M0,0.119C-0.443,-0.235 -1.13,-0.506 -2.041,-0.688C-2.61,-0.798 -2.993,-0.925 -3.178,-1.065C-3.357,-1.2 -3.443,-1.364 -3.443,-1.567C-3.443,-1.782 -3.352,-1.957 -3.164,-2.101C-2.973,-2.247 -2.708,-2.321 -2.377,-2.321C-2.138,-2.321 -1.917,-2.286 -1.719,-2.217C-1.529,-2.15 -1.369,-2.067 -1.244,-1.97L-1.028,-1.03L0.409,-1.03L0.389,-2.911L0.388,-2.941L0.367,-2.959C0.071,-3.203 -0.338,-3.405 -0.849,-3.559C-1.36,-3.713 -1.908,-3.792 -2.479,-3.792C-3.423,-3.792 -4.162,-3.562 -4.676,-3.11C-5.193,-2.656 -5.454,-2.107 -5.454,-1.478C-5.454,-0.866 -5.225,-0.376 -4.771,-0.02C-4.327,0.329 -3.662,0.596 -2.796,0.773C-2.241,0.891 -1.855,1.028 -1.65,1.181C-1.454,1.328 -1.358,1.495 -1.358,1.692C-1.358,1.92 -1.452,2.095 -1.646,2.228C-1.843,2.365 -2.14,2.433 -2.526,2.433C-2.742,2.433 -2.951,2.41 -3.147,2.364C-3.332,2.322 -3.479,2.256 -3.587,2.17L-3.864,1.19L-5.354,1.19L-5.333,2.896L-5.332,2.925L-5.31,2.943C-4.94,3.253 -4.512,3.494 -4.037,3.661C-3.563,3.826 -3.034,3.911 -2.465,3.911C-1.532,3.911 -0.768,3.696 -0.194,3.273C0.385,2.846 0.679,2.286 0.679,1.61C0.679,0.982 0.451,0.479 0,0.119" style="fill:rgb(35,31,32);fill-rule:nonzero;"/>
        </g>
        <g transform="matrix(1,0,0,1,101.737,62.3814)">
            <path d="M0,2.663L3.887,2.663L1.974,-2.541L1.933,-2.541L0,2.663ZM-2.65,5.658L-1.926,5.603L1.568,-3.589L2.332,-3.589L5.792,5.603L6.529,5.658L6.529,6.252L4.103,6.252L4.103,5.658L4.961,5.589L4.15,3.386L-0.271,3.386L-1.088,5.589L-0.23,5.658L-0.23,6.252L-2.65,6.252L-2.65,5.658Z" style="fill:rgb(35,31,32);fill-rule:nonzero;"/>
        </g>
        <g transform="matrix(1,0,0,1,110.227,62.4767)">
            <path d="M0,2.703C0,3.586 0.177,4.289 0.53,4.812C0.884,5.334 1.417,5.596 2.129,5.596C2.647,5.596 3.081,5.479 3.43,5.245C3.779,5.01 4.051,4.687 4.245,4.278L4.245,0.817C4.064,0.403 3.804,0.065 3.464,-0.197C3.124,-0.458 2.684,-0.589 2.143,-0.589C1.431,-0.589 0.896,-0.297 0.537,0.286C0.179,0.87 0,1.629 0,2.561L0,2.703ZM4.265,5.102C4.022,5.485 3.708,5.781 3.325,5.988C2.942,6.195 2.492,6.299 1.974,6.299C1.099,6.299 0.416,5.973 -0.078,5.319C-0.571,4.665 -0.818,3.793 -0.818,2.703L-0.818,2.561C-0.818,1.394 -0.571,0.46 -0.078,-0.241C0.416,-0.942 1.104,-1.292 1.987,-1.292C2.496,-1.292 2.938,-1.185 3.312,-0.97C3.686,-0.756 3.997,-0.451 4.245,-0.055L4.245,-2.908L3.143,-2.995L3.143,-3.596L5.056,-3.596L5.056,5.474L6.158,5.562L6.158,6.157L4.333,6.157L4.265,5.102Z" style="fill:rgb(35,31,32);fill-rule:nonzero;"/>
        </g>
        <g transform="matrix(1,0,0,1,119.529,68.0314)">
            <path d="M0,-6.109L-0.913,-6.042L0.913,-1.23L1.149,-0.371L1.189,-0.371L1.446,-1.23L3.244,-6.042L2.332,-6.109L2.332,-6.711L4.792,-6.711L4.792,-6.109L4.076,-6.049L1.494,0.602L0.845,0.602L-1.744,-6.049L-2.46,-6.109L-2.46,-6.711L0,-6.711L0,-6.109Z" style="fill:rgb(35,31,32);fill-rule:nonzero;"/>
        </g>
        <g transform="matrix(1,0,0,1,0,-664.71)">
            <path d="M127.065,724.502L126.261,724.502L126.261,723.367L127.065,723.367L127.065,724.502ZM125.16,732.749L126.261,732.661L126.261,726.72L125.16,726.632L125.16,726.03L127.065,726.03L127.065,732.661L128.167,732.749L128.167,733.343L125.16,733.343L125.16,732.749Z" style="fill:rgb(35,31,32);fill-rule:nonzero;"/>
        </g>
        <g transform="matrix(1,0,0,1,134.832,66.3821)">
            <path d="M0,-2.805L-0.662,-2.805L-0.757,-3.839C-0.959,-4.05 -1.216,-4.215 -1.524,-4.332C-1.833,-4.45 -2.188,-4.508 -2.589,-4.508C-3.179,-4.508 -3.622,-4.38 -3.917,-4.126C-4.212,-3.871 -4.359,-3.573 -4.359,-3.231C-4.359,-2.892 -4.232,-2.613 -3.978,-2.392C-3.723,-2.172 -3.215,-1.978 -2.453,-1.811C-1.584,-1.618 -0.933,-1.352 -0.5,-1.016C-0.067,-0.681 0.149,-0.224 0.149,0.353C0.149,0.961 -0.098,1.452 -0.591,1.829C-1.084,2.205 -1.737,2.393 -2.548,2.393C-3.088,2.393 -3.581,2.318 -4.025,2.168C-4.469,2.016 -4.853,1.803 -5.177,1.528L-5.177,0.054L-4.521,0.054L-4.407,1.096C-4.19,1.312 -3.917,1.469 -3.585,1.566C-3.254,1.663 -2.909,1.711 -2.548,1.711C-1.962,1.711 -1.5,1.582 -1.163,1.326C-0.824,1.069 -0.655,0.758 -0.655,0.392C-0.655,0.05 -0.796,-0.249 -1.078,-0.507C-1.359,-0.763 -1.868,-0.972 -2.602,-1.135C-3.472,-1.324 -4.117,-1.576 -4.539,-1.888C-4.96,-2.202 -5.17,-2.64 -5.17,-3.203C-5.17,-3.762 -4.934,-4.234 -4.46,-4.619C-3.988,-5.005 -3.364,-5.198 -2.589,-5.198C-2.052,-5.198 -1.562,-5.115 -1.118,-4.95C-0.674,-4.786 -0.313,-4.564 -0.033,-4.284L0,-2.805Z" style="fill:rgb(35,31,32);fill-rule:nonzero;"/>
        </g>
        <g transform="matrix(1,0,0,1,137.265,64.8673)">
            <path d="M0,0.225C0,1.072 0.214,1.784 0.642,2.36C1.07,2.937 1.667,3.225 2.434,3.225C3.186,3.225 3.776,2.937 4.204,2.36C4.632,1.784 4.847,1.072 4.847,0.225L4.847,0.002C4.847,-0.832 4.631,-1.539 4.201,-2.121C3.771,-2.703 3.177,-2.993 2.42,-2.993C1.663,-2.993 1.07,-2.703 0.642,-2.121C0.214,-1.539 0,-0.832 0,0.002L0,0.225ZM-0.811,0.002C-0.811,-1.076 -0.516,-1.958 0.075,-2.648C0.665,-3.338 1.447,-3.683 2.42,-3.683C3.397,-3.683 4.182,-3.338 4.772,-2.648C5.363,-1.958 5.658,-1.076 5.658,0.002L5.658,0.225C5.658,1.306 5.364,2.191 4.776,2.878C4.187,3.564 3.407,3.908 2.434,3.908C1.451,3.908 0.665,3.564 0.075,2.878C-0.516,2.191 -0.811,1.306 -0.811,0.225L-0.811,0.002Z" style="fill:rgb(35,31,32);fill-rule:nonzero;"/>
        </g>
        <g transform="matrix(1,0,0,1,145.991,68.4973)">
            <path d="M0,-7.177L0.101,-5.961L0.101,-5.873C0.309,-6.323 0.591,-6.676 0.95,-6.931C1.308,-7.185 1.732,-7.313 2.224,-7.313C2.327,-7.313 2.428,-7.305 2.524,-7.288C2.622,-7.273 2.701,-7.256 2.765,-7.238L2.656,-6.481L2.055,-6.522C1.545,-6.522 1.127,-6.378 0.801,-6.092C0.475,-5.806 0.241,-5.413 0.101,-4.913L0.101,-0.547L1.203,-0.458L1.203,0.136L-1.805,0.136L-1.805,-0.458L-0.703,-0.547L-0.703,-6.488L-1.805,-6.575L-1.805,-7.177L0,-7.177Z" style="fill:rgb(35,31,32);fill-rule:nonzero;"/>
        </g>
        <g transform="matrix(1,0,0,1,155.109,66.3821)">
            <path d="M0,-2.805L-0.663,-2.805L-0.757,-3.839C-0.96,-4.05 -1.216,-4.215 -1.524,-4.332C-1.833,-4.45 -2.188,-4.508 -2.589,-4.508C-3.18,-4.508 -3.622,-4.38 -3.917,-4.126C-4.212,-3.871 -4.36,-3.573 -4.36,-3.231C-4.36,-2.892 -4.232,-2.613 -3.978,-2.392C-3.724,-2.172 -3.215,-1.978 -2.454,-1.811C-1.584,-1.618 -0.933,-1.352 -0.5,-1.016C-0.068,-0.681 0.148,-0.224 0.148,0.353C0.148,0.961 -0.098,1.452 -0.592,1.829C-1.085,2.205 -1.737,2.393 -2.548,2.393C-3.089,2.393 -3.582,2.318 -4.025,2.168C-4.469,2.016 -4.853,1.803 -5.178,1.528L-5.178,0.054L-4.522,0.054L-4.407,1.096C-4.191,1.312 -3.917,1.469 -3.586,1.566C-3.254,1.663 -2.909,1.711 -2.548,1.711C-1.963,1.711 -1.501,1.582 -1.163,1.326C-0.825,1.069 -0.656,0.758 -0.656,0.392C-0.656,0.05 -0.797,-0.249 -1.078,-0.507C-1.36,-0.763 -1.868,-0.972 -2.603,-1.135C-3.472,-1.324 -4.118,-1.576 -4.539,-1.888C-4.96,-2.202 -5.171,-2.64 -5.171,-3.203C-5.171,-3.762 -4.935,-4.234 -4.461,-4.619C-3.988,-5.005 -3.364,-5.198 -2.589,-5.198C-2.053,-5.198 -1.563,-5.115 -1.119,-4.95C-0.675,-4.786 -0.313,-4.564 -0.034,-4.284L0,-2.805Z" style="fill:rgb(35,31,32);fill-rule:nonzero;"/>
        </g>
        <g transform="matrix(1,0,0,1,157.223,62.4956)">
            <path d="M0,-0.104C0.149,-0.104 0.229,-0.184 0.229,-0.295L0.229,-0.302C0.229,-0.431 0.139,-0.497 -0.007,-0.497L-0.296,-0.497L-0.296,-0.104L0,-0.104ZM-0.592,-0.758L0.003,-0.758C0.184,-0.758 0.323,-0.706 0.417,-0.612C0.49,-0.539 0.528,-0.438 0.528,-0.32L0.528,-0.313C0.528,-0.097 0.41,0.039 0.24,0.101L0.566,0.581L0.222,0.581L-0.063,0.15L-0.296,0.15L-0.296,0.581L-0.592,0.581L-0.592,-0.758ZM1.04,-0.052L1.04,-0.059C1.04,-0.674 0.563,-1.172 -0.07,-1.172C-0.706,-1.172 -1.187,-0.667 -1.187,-0.052L-1.187,-0.045C-1.187,0.57 -0.71,1.068 -0.077,1.068C0.56,1.068 1.04,0.563 1.04,-0.052M-1.333,-0.045L-1.333,-0.052C-1.333,-0.737 -0.776,-1.311 -0.07,-1.311C0.636,-1.311 1.186,-0.744 1.186,-0.059L1.186,-0.052C1.186,0.633 0.629,1.207 -0.077,1.207C-0.783,1.207 -1.333,0.64 -1.333,-0.045" style="fill:rgb(35,31,32);fill-rule:nonzero;"/>
        </g>
    </g>
</svg>
